<svg xmlns:dc="http://purl.org/dc/elements/1.1/" xmlns:cc="http://creativecommons.org/ns#" xmlns:rdf="http://www.w3.org/1999/02/22-rdf-syntax-ns#" xmlns:svg="http://www.w3.org/2000/svg" xmlns="http://www.w3.org/2000/svg" xmlns:sodipodi="http://sodipodi.sourceforge.net/DTD/sodipodi-0.dtd" xmlns:inkscape="http://www.inkscape.org/namespaces/inkscape" version="1.1" x="0px" y="0px" viewBox="0 0 100 125"><g transform="translate(0,-952.36218)"><path style="text-indent:0;text-transform:none;direction:ltr;block-progression:tb;baseline-shift:baseline;color:#000000;enable-background:accumulate;" d="m 19.999975,1002.3742 c 0.056,0.6635 0.3049,1.4483 0.6563,1.875 l 12,15.0001 c 1.1699,1.3314 2.9916,1.4508 4.2189,0.469 1.2273,-0.9818 1.4505,-2.9918 0.4686,-4.219 l -8.0938,-10.125 47.75005,0 c 1.6568,0 3,-1.3433 3,-3.0001 0,-1.6569 -1.3432,-2.99996 -3,-2.99996 l -47.75005,0 8.0938,-10.125 c 0.9819,-1.2271 0.7209,-3.1917 -0.4686,-4.2189 -1.2925,-1.1161 -3.2372,-0.7584 -4.2189,0.4689 l -12,14.99996 c -0.5079,0.6216 -0.6474,1.078 -0.6563,1.875 z" fill="#000000" fill-opacity="1" stroke="none" marker="none" visibility="visible" display="inline" overflow="visible"/></g></svg>