<svg xmlns="http://www.w3.org/2000/svg" xmlns:xlink="http://www.w3.org/1999/xlink" version="1.1" x="0px" y="0px" viewBox="0 0 32 40" style="enable-background:new 0 0 32 32;" xml:space="preserve"><g><path d="M15.9151411,4.5046844l12.6454,10.99335h-3.5546608v12.0039301l-6.0047684-0.0062504l0.0044098-7.0004902   l-5.9954405,0.0062504l-0.0044098,7.0004902H7.000001V15.4980345H3.4453411L15.9151411,4.5046844 M15.9151678,3.0046854   c-0.3543806,0-0.7086105,0.125005-0.9919767,0.374819l-12.4698,10.99335   c-0.4679999,0.4125805-0.63175,1.0717707-0.4112198,1.6553802c0.2205298,0.5836201,0.7792799,0.9698009,1.4031699,0.9698009   H5.500001v10.5039291c0,0.8284302,0.6715703,1.5,1.5,1.5h6.0056705c0.8280592,0,1.4994793-0.6709995,1.5-1.4990597   l0.0034666-5.5029907l2.9954357-0.0031242l-0.0034618,5.4979839c-0.0005207,0.8281803,0.6702499,1.5000801,1.4984398,1.5009403   l6.0047703,0.0062504c0.0005093,0,0.0010357,0,0.0015469,0c0.3975372,0,0.7788429-0.1578007,1.0601215-0.4387894   c0.281641-0.2813511,0.4398899-0.6631107,0.4398899-1.0612106V16.9980354h2.0546608   c0.6257896,0,1.1858292-0.3885002,1.4050007-0.9746609c0.2191696-0.5861597,0.0514088-1.2467899-0.4208698-1.6573696   L16.899271,3.3726544C16.6170216,3.1272788,16.2660198,3.0046854,15.9151678,3.0046854L15.9151678,3.0046854z"/></g></svg>