<svg xmlns="http://www.w3.org/2000/svg" xmlns:xlink="http://www.w3.org/1999/xlink" version="1.1" x="0px" y="0px" viewBox="0 0 100 125" enable-background="new 0 0 100 100" xml:space="preserve"><g><path d="M13.227,84.494c0.008,0.047,0.019,0.093,0.031,0.139c0.013,0.048,0.026,0.095,0.044,0.142   c0.019,0.049,0.04,0.096,0.063,0.142c0.013,0.026,0.021,0.054,0.035,0.08c0.01,0.016,0.022,0.029,0.032,0.044   c0.027,0.044,0.058,0.084,0.089,0.125c0.03,0.039,0.06,0.077,0.092,0.111c0.033,0.034,0.068,0.065,0.104,0.096   c0.038,0.033,0.075,0.067,0.115,0.096c0.038,0.027,0.078,0.049,0.119,0.073c0.043,0.025,0.085,0.05,0.13,0.071   c0.042,0.02,0.087,0.034,0.131,0.049c0.048,0.017,0.096,0.033,0.145,0.045c0.043,0.01,0.086,0.016,0.13,0.022   c0.056,0.008,0.111,0.015,0.168,0.017c0.016,0,0.031,0.005,0.048,0.005h70.591c0.001,0,0.003,0,0.004,0   c0.005,0,0.009-0.001,0.014-0.001c0.116-0.001,0.229-0.018,0.337-0.044c0.032-0.008,0.063-0.02,0.096-0.03   c0.083-0.026,0.162-0.058,0.237-0.097c0.033-0.017,0.064-0.032,0.096-0.051c0.089-0.055,0.172-0.116,0.248-0.188   c0.01-0.01,0.021-0.017,0.032-0.027c0.084-0.084,0.154-0.181,0.217-0.282c0.008-0.013,0.019-0.021,0.026-0.034   c0.015-0.026,0.022-0.053,0.035-0.079c0.023-0.047,0.045-0.093,0.063-0.143c0.018-0.047,0.031-0.094,0.044-0.141   c0.013-0.046,0.023-0.092,0.031-0.14c0.009-0.054,0.014-0.107,0.017-0.162c0.001-0.028,0.008-0.054,0.008-0.082V43.774   c0-0.038-0.012-0.073-0.015-0.11c-0.006-0.073-0.013-0.146-0.028-0.216c-0.013-0.054-0.029-0.105-0.048-0.158   c-0.022-0.066-0.048-0.131-0.08-0.193c-0.025-0.05-0.054-0.097-0.085-0.144c-0.038-0.058-0.079-0.112-0.125-0.164   c-0.038-0.043-0.077-0.083-0.121-0.123c-0.023-0.021-0.04-0.047-0.065-0.067L50.933,14.575c-0.547-0.434-1.318-0.434-1.865,0   L13.77,42.6c-0.025,0.02-0.043,0.046-0.066,0.067c-0.043,0.039-0.082,0.079-0.12,0.122c-0.046,0.052-0.087,0.106-0.125,0.164   c-0.031,0.047-0.06,0.094-0.085,0.144c-0.032,0.063-0.058,0.127-0.08,0.194c-0.019,0.052-0.035,0.103-0.048,0.157   c-0.016,0.071-0.022,0.144-0.028,0.217c-0.003,0.037-0.015,0.072-0.015,0.11V84.25c0,0.028,0.007,0.054,0.008,0.082   C13.213,84.386,13.218,84.44,13.227,84.494z M83.798,81.661L53.016,64.012l30.782-17.648V81.661z M50,65.741L79.666,82.75H20.334   L50,65.741z M46.984,64.012L16.202,81.661V46.363L46.984,64.012z M50,17.665l32.633,25.908L50,62.283L17.367,43.573L50,17.665z"/></g></svg>