<svg xmlns="http://www.w3.org/2000/svg" viewBox="0 0 64 80" x="0px" y="0px"><title>Icon-7</title><path d="M51.15,48.61l-.23-.15c-.79-.54-4.35-2.86-6.7-4.4-1-.66-1.84-1.19-2.15-1.4A5.1,5.1,0,0,0,35.19,44l-.28.35c-.88,1.1-1.79,2.25-3.25,2.33-2.08.13-5-1.74-8.78-5.52s-5.64-6.74-5.53-8.78c.09-1.47,1.23-2.38,2.33-3.26L20,28.8a5.08,5.08,0,0,0,1.29-6.87l-1.32-2c-1.57-2.39-3.93-6-4.47-6.82l-.15-.22c-.81-1.2-2.15-3.2-5-2.79C8.39,10.35,1,14.19,1,22.53c0,7.25,5.3,16.7,14.54,25.94S34.21,63,41.46,63c8.34,0,12.19-7.4,12.47-9.39C54.34,50.76,52.34,49.41,51.15,48.61Zm.8,4.72C51.73,54.89,48.4,61,41.46,61c-6.72,0-15.66-5.08-24.52-14S3,29.25,3,22.53A11.18,11.18,0,0,1,10.67,12l.43,0c1.21,0,1.86.82,2.63,2l.16.23c.53.78,2.88,4.4,4.44,6.79l1.33,2a3.12,3.12,0,0,1-.88,4.23l-.34.27c-1.24,1-3,2.34-3.08,4.7-.16,2.72,1.78,6,6.1,10.31s7.61,6.27,10.31,6.11c2.36-.14,3.72-1.84,4.71-3.09l.27-.34A3.12,3.12,0,0,1,41,44.33l2.15,1.41c2.35,1.53,5.9,3.84,6.67,4.37l.24.16C51.29,51.12,52.17,51.83,52,53.33Z"/><path d="M30,1V3A31,31,0,0,1,61,34h2A33,33,0,0,0,30,1Z"/><path d="M51,34h2A23,23,0,0,0,30,11v2A21,21,0,0,1,51,34Z"/><path d="M40,34h2A12,12,0,0,0,30,22v2A10,10,0,0,1,40,34Z"/></svg>